<?xml version="1.0" encoding="iso-8859-1"?>
<!-- Uploaded to: SVG Repo, www.svgrepo.com, Generator: SVG Repo Mixer Tools -->
<svg height="800px" width="800px" version="1.1" id="Layer_1" xmlns="http://www.w3.org/2000/svg" xmlns:xlink="http://www.w3.org/1999/xlink" 
	 viewBox="0 0 512 512" xml:space="preserve">
<path style="fill:#12121428;" d="M439.242,503.916H51.2c-11.906,0-21.558-9.651-21.558-21.558V83.537
	c0-23.812,19.304-43.116,43.116-43.116h366.484c23.812,0,43.116,19.304,43.116,43.116V460.8
	C482.358,484.612,463.054,503.916,439.242,503.916z"/>
<path style="fill:#B9BAA6;" d="M40.421,202.105H18.863c-5.953,0-10.779-4.826-10.779-10.779v-64.674H51.2v64.674
	C51.2,197.28,46.374,202.105,40.421,202.105z"/>
<path style="fill:#DDB900;" d="M148.211,460.8H94.316V126.653h53.895V460.8z"/>
<path style="fill:#B9BAA6;" d="M212.884,460.8v43.116H18.863V460.8c0-5.953,4.826-10.779,10.779-10.779h172.463
	C208.059,450.021,212.884,454.847,212.884,460.8z"/>
<path style="fill:#E7E8D4;" d="M503.916,353.011v32.337c0,5.953-4.826,10.779-10.779,10.779h-53.895v53.895h32.337
	c5.953,0,10.779,4.826,10.779,10.779v43.116h-204.8v-53.895v-43.116c0-5.953,4.826-10.779,10.779-10.779h75.453v-43.116
	c0-5.953,4.826-10.779,10.779-10.779h118.568C499.09,342.232,503.916,347.057,503.916,353.011z"/>
<path style="fill:#D3D5BB;" d="M503.916,353.011v32.337c0,5.953-4.826,10.779-10.779,10.779h-53.895v53.895H277.558v-43.116
	c0-5.953,4.826-10.779,10.779-10.779h75.453v-43.116c0-5.953,4.826-10.779,10.779-10.779h118.568
	C499.09,342.232,503.916,347.057,503.916,353.011z"/>
<path style="fill:#B9BAA6;" d="M503.916,353.011v32.337c0,5.953-4.826,10.779-10.779,10.779H363.789v-43.116
	c0-5.953,4.826-10.779,10.779-10.779h118.568C499.09,342.232,503.916,347.057,503.916,353.011z"/>
<path style="fill:#C5EAD4;" d="M503.916,29.642L503.916,29.642c0,11.906-9.651,21.558-21.558,21.558H382.44
	c1.838,3.173,2.907,6.848,2.907,10.779l0,0c0,11.906-9.651,21.558-21.558,21.558H202.105c-11.906,0-21.558-9.651-21.558-21.558l0,0
	c0-11.906,9.651-21.558,21.558-21.558h121.475c-1.838-3.173-2.907-6.848-2.907-10.779l0,0c0-11.906,9.651-21.558,21.558-21.558
	h140.126C494.264,8.084,503.916,17.736,503.916,29.642z"/>
<path d="M129.835,37.658c1.526-4.196,6.167-6.359,10.36-4.834l21.558,7.84c4.196,1.526,6.361,6.164,4.834,10.36
	c-1.194,3.283-4.295,5.324-7.598,5.324c-0.917,0-1.85-0.157-2.763-0.489l-21.558-7.84C130.473,46.493,128.308,41.855,129.835,37.658
	z M202.105,91.621h161.684c16.344,0,29.642-13.297,29.642-29.642c0-5.188-1.382-10.317-3.996-14.83
	c-2.238-3.863-7.181-5.183-11.047-2.945c-3.863,2.238-5.183,7.184-2.944,11.047c1.207,2.085,1.819,4.348,1.819,6.728
	c0,7.43-6.044,13.474-13.474,13.474H202.106c-7.43,0-13.474-6.044-13.474-13.474s6.043-13.475,13.473-13.475h121.475
	c2.891,0,5.56-1.542,7.004-4.046c1.443-2.504,1.44-5.588-0.009-8.089c-1.207-2.085-1.818-4.348-1.818-6.728
	c0-7.43,6.044-13.474,13.474-13.474h140.126c7.43,0,13.474,6.044,13.474,13.474s-6.044,13.474-13.474,13.474h-68.985
	c-4.466,0-8.084,3.62-8.084,8.084s3.618,8.084,8.084,8.084h68.985c16.344,0,29.642-13.297,29.642-29.642S498.702,0,482.358,0
	H342.232c-16.344,0-29.642,13.297-29.642,29.642c0,0.901,0.042,1.8,0.124,2.695H202.105c-16.344,0-29.642,13.297-29.642,29.642
	S185.761,91.621,202.105,91.621z M512,353.011v32.337c0,10.401-8.463,18.863-18.863,18.863h-45.811v22.366
	c0,4.465-3.618,8.084-8.084,8.084s-8.084-3.62-8.084-8.084v-22.366H288.337c-1.486,0-2.695,1.209-2.695,2.695v35.032h57.398
	c4.466,0,8.084,3.62,8.084,8.084s-3.618,8.084-8.084,8.084h-57.398v37.726h188.632V460.8c0-1.485-1.208-2.695-2.695-2.695h-96.741
	c-4.466,0-8.084-3.62-8.084-8.084s3.618-8.084,8.084-8.084h96.741c10.401,0,18.863,8.463,18.863,18.863v35.032h13.474
	c4.466,0,8.084,3.62,8.084,8.084c0,4.465-3.618,8.084-8.084,8.084H180.547c-4.465,0-8.084-3.62-8.084-8.084
	c0-4.465,3.62-8.084,8.084-8.084H204.8V460.8c0-1.485-1.209-2.695-2.695-2.695H29.642c-1.485,0-2.695,1.209-2.695,2.695v35.032
	h121.263c4.465,0,8.084,3.62,8.084,8.084c0,4.465-3.62,8.084-8.084,8.084H8.084C3.62,512,0,508.38,0,503.916
	c0-4.465,3.62-8.084,8.084-8.084h2.695V460.8c0-10.401,8.463-18.863,18.863-18.863h56.589v-34.844c-0.003-0.126-0.003-0.251,0-0.377
	v-44.894c-0.003-0.126-0.003-0.251,0-0.377V316.55c-0.003-0.126-0.003-0.251,0-0.377v-44.894c-0.003-0.126-0.003-0.251,0-0.377
	v-44.894c-0.003-0.126-0.003-0.251,0-0.377v-44.894c-0.003-0.126-0.003-0.251,0-0.377v-45.621H59.284v56.589
	c0,10.401-8.463,18.863-18.863,18.863H18.863C8.463,210.189,0,201.727,0,191.326v-64.637c-0.001-0.304,0-3.101,2.029-5.393
	l75.424-86.199c2.942-3.36,8.048-3.699,11.407-0.761c3.36,2.94,3.7,8.048,0.761,11.407L25.9,118.568h76.5V8.084
	C102.4,3.62,106.02,0,110.484,0s8.084,3.62,8.084,8.084v110.484H328.68l-11.81-4.294c-4.196-1.526-6.36-6.164-4.834-10.36
	c1.526-4.195,6.162-6.36,10.361-4.834l53.596,19.488h52.471c4.466,0,8.084,3.62,8.084,8.084c0,4.465-3.618,8.084-8.084,8.084h-2.695
	V256c0,4.465-3.618,8.084-8.084,8.084c-7.43,0-13.474,6.044-13.474,13.474c0,7.43,6.044,13.474,13.474,13.474
	s13.474-6.044,13.474-13.474c0-4.465,3.618-8.084,8.084-8.084s8.084,3.62,8.084,8.084c0,16.345-13.298,29.642-29.642,29.642
	s-29.642-13.297-29.642-29.642c0-13.544,9.13-24.994,21.558-28.521v-114.3h-34.844c-0.124,0.003-0.247,0.003-0.376,0H156.295v307.2
	h45.811c10.401,0,18.863,8.463,18.863,18.863v35.032h48.505v-88.926c0-10.401,8.463-18.863,18.863-18.863h204.8
	c1.486,0,2.695-1.209,2.695-2.695v-32.337c0-1.485-1.208-2.695-2.695-2.695H374.568c-1.486,0-2.695,1.209-2.695,2.695v19.402
	c0,4.465-3.618,8.084-8.084,8.084c-4.466,0-8.084-3.62-8.084-8.084v-19.402c0-10.401,8.463-18.863,18.863-18.863h118.568
	C503.537,334.147,512,342.61,512,353.011z M43.116,134.737H16.168v56.589c0,1.485,1.209,2.695,2.695,2.695h21.558
	c1.485,0,2.695-1.209,2.695-2.695V134.737z M140.126,134.737H102.4v34.594l21.696-7.232c4.234-1.411,8.814,0.877,10.226,5.114
	c1.412,4.235-0.877,8.814-5.114,10.226l-26.808,8.936v28.228l21.696-7.232c4.234-1.412,8.814,0.876,10.226,5.114
	c1.412,4.235-0.877,8.814-5.114,10.226l-26.808,8.936v28.228l21.696-7.232c4.234-1.411,8.814,0.877,10.226,5.114
	c1.412,4.235-0.877,8.814-5.114,10.226l-26.808,8.936v28.228l21.696-7.232c4.234-1.412,8.814,0.877,10.226,5.114
	c1.412,4.235-0.877,8.814-5.114,10.226l-26.808,8.936v28.228l21.696-7.232c4.234-1.411,8.814,0.876,10.226,5.114
	c1.412,4.235-0.877,8.814-5.114,10.226l-26.808,8.936v28.228l21.696-7.232c4.234-1.412,8.814,0.877,10.226,5.113
	c1.412,4.235-0.877,8.814-5.114,10.226l-26.808,8.936v29.204h37.726V134.737z"/>
</svg>