<?xml version="1.0" encoding="UTF-8" standalone="no"?>
<svg width="104px" height="104px" viewBox="0 0 104 104" version="1.1" xmlns="http://www.w3.org/2000/svg" xmlns:xlink="http://www.w3.org/1999/xlink">
    <!-- Uploaded to SVGRepo https://www.svgrepo.com -->
    <title>15-multimeda-piano</title>
    <desc>Created with Sketch.</desc>
    <defs></defs>
    <g id="3.Multimedia" stroke="none" stroke-width="1" fill="none" fill-rule="evenodd" stroke-linecap="round" stroke-linejoin="round">
        <g id="Multimedia-(Color)" transform="translate(-898.000000, -300.000000)" stroke="#263238" stroke-width="3.5">
            <g id="15-multimeda-piano" transform="translate(900.000000, 302.000000)">
                <rect id="Layer-1" fill="#8DA3AD" x="0" y="0" width="100" height="100"></rect>
                <polygon id="Layer-2" fill="#8DA3AD" points="46 0 29 0 33 0 33 60 25 60 25 100 50 100 50 60 42 60 42 0"></polygon>
                <polygon id="Layer-3" fill="#8DA3AD" points="71 0 54 0 58 0 58 60 50 60 50 100 75 100 75 60 67 60 67 0"></polygon>
                <rect id="Layer-4" fill="#FFFFFF" x="17" y="0" width="16" height="60"></rect>
                <rect id="Layer-5" fill="#E2F3FB" x="42" y="0" width="16" height="60"></rect>
                <rect id="Layer-6" fill="#FFFFFF" x="67" y="0" width="16" height="60"></rect>
            </g>
        </g>
    </g>
</svg>