<?xml version="1.0" encoding="iso-8859-1"?>
<!-- Generator: Adobe Illustrator 19.0.0, SVG Export Plug-In . SVG Version: 6.00 Build 0)  -->
<svg version="1.1" id="Layer_1" xmlns="http://www.w3.org/2000/svg" xmlns:xlink="http://www.w3.org/1999/xlink" x="0px" y="0px"
	 viewBox="0 0 490 490" style="enable-background:new 0 0 490 490;" xml:space="preserve">
<g>
	<path style="fill:#29ABE2;" d="M399,264.276h-16v-61.59l-52.365,168.59h117.612L399,212.678V264.276z M399,354.276h-16v-29h16
		V354.276z M399,308.276h-16v-29h16V308.276z"/>
	
		<rect x="340.209" y="39.461" transform="matrix(-0.7071 -0.7071 0.7071 -0.7071 557.2037 318.3922)" style="fill:#29ABE2;" width="8.669" height="8.669"/>
	<path style="fill:#29ABE2;" d="M234.343,165.716l-7.262,20.559H243v15h-21.217l-60.046,170h152.866l63.853-205.577L234.343,165.716
		z M292,201.276h-26v-15h26V201.276z"/>
	<polygon style="fill:#1F80AA;" points="103.623,165.733 97.247,186.276 227.081,186.276 234.343,165.716 	"/>
	<polygon style="fill:#1F80AA;" points="92.592,201.276 39.831,371.276 161.737,371.276 221.783,201.276 	"/>
	<path style="fill:#FBB03B;" d="M131.302,409.276H299v16H156.87l88.126,55.147h245v-94.147H94.547L131.302,409.276z M322,409.276h28
		v16h-28V409.276z"/>
	<polygon style="fill:#F7931E;" points="85,425.276 85,409.276 131.302,409.276 94.547,386.276 0,386.276 0,480.422 
		244.997,480.422 156.87,425.276 	"/>
	<path style="fill:#FBB03B;" d="M75.424,111.931c23.997,0,43.521-19.523,43.521-43.524c0-23.997-19.523-43.521-43.521-43.521
		c-0.001,0-0.001,0-0.002,0v87.045C75.423,111.931,75.423,111.931,75.424,111.931z"/>
	<path style="fill:#F7931E;" d="M75.422,111.931V24.886c-24,0.001-43.522,19.524-43.522,43.52
		C31.9,92.407,51.422,111.93,75.422,111.931z"/>
	<rect x="266" y="186.276" width="26" height="15"/>
	<rect x="383" y="325.276" style="fill:#FFFFFF;" width="16" height="29"/>
	<rect x="383" y="279.276" style="fill:#FFFFFF;" width="16" height="29"/>
	<polygon points="85,425.276 156.87,425.276 299,425.276 299,409.276 131.302,409.276 85,409.276 	"/>
	<rect x="322" y="409.276" width="28" height="16"/>
	<rect x="292" y="445.276" width="114" height="16"/>
	<path d="M75.424,127.242c32.441,0,58.831-26.393,58.831-58.835S107.865,9.576,75.424,9.576s-58.835,26.39-58.835,58.831
		S42.983,127.242,75.424,127.242z M75.422,24.886c0.001,0,0.001,0,0.002,0c23.997,0,43.521,19.523,43.521,43.521
		c0,24.001-19.523,43.524-43.521,43.524c-0.001,0-0.001,0-0.002,0c-24-0.001-43.522-19.524-43.522-43.524
		C31.9,44.41,51.422,24.887,75.422,24.886z"/>
	<path d="M372.327,43.796l-27.78-27.78l-27.78,27.78l27.78,27.78L372.327,43.796z M344.546,37.666l6.13,6.13l-6.13,6.13l-6.13-6.13
		L344.546,37.666z"/>
	<path d="M464.105,371.276l-69.179-222H93.112l-69.167,222H0v15h94.547h395.45H490v-15H464.105z M161.737,371.276H39.831l52.761-170
		h129.191H243v-15h-15.919H97.247l6.376-20.543l130.72-0.017l144.113-0.018l-63.853,205.577H161.737V371.276z M330.635,371.276
		L383,202.686v61.59h16v-51.598l49.247,158.598L330.635,371.276L330.635,371.276z"/>
</g>
<g>
	
		<rect x="437.252" y="90.646" transform="matrix(-0.7071 0.7071 -0.7071 -0.7071 820.9976 -150.1066)" style="fill:#29ABE2;" width="8.669" height="8.669"/>
	<path d="M441.59,67.196l-27.78,27.78l27.78,27.78l27.78-27.78L441.59,67.196z M435.46,94.976l6.13-6.13l6.13,6.13l-6.13,6.13
		L435.46,94.976z"/>
</g>
<g>
</g>
<g>
</g>
<g>
</g>
<g>
</g>
<g>
</g>
<g>
</g>
<g>
</g>
<g>
</g>
<g>
</g>
<g>
</g>
<g>
</g>
<g>
</g>
<g>
</g>
<g>
</g>
<g>
</g>
</svg>
